<svg version="1.1" id="Layer_1" xmlns="http://www.w3.org/2000/svg" xmlns:xlink="http://www.w3.org/1999/xlink" x="0px" y="0px"
	 width="100%" viewBox="0 0 376 247" enable-background="new 0 0 376 247" xml:space="preserve">
<path fill="#FF0F0F" opacity="1.000000" stroke="none" 
	d="
M246.000000,248.000000 
	C164.000031,248.000000 82.500046,248.000000 1.000055,248.000000 
	C1.000036,165.666718 1.000036,83.333427 1.000018,1.000110 
	C126.333252,1.000073 251.666504,1.000073 376.999817,1.000037 
	C376.999878,83.333221 376.999878,165.666443 376.999939,247.999832 
	C333.500000,248.000000 290.000000,248.000000 246.000000,248.000000 
M375.447296,16.504696 
	C375.447296,12.094233 375.447296,7.683769 375.447296,3.403171 
	C250.864700,3.403171 126.993484,3.403171 3.294032,3.403171 
	C3.294032,84.705765 3.294032,165.631897 3.294032,246.567352 
	C127.324211,246.567352 251.087082,246.567352 375.447357,246.567352 
	C375.447357,170.061020 375.447357,93.781830 375.447296,16.504696 
z"/>
<path fill="#FEFEFE" opacity="1.000000" stroke="none" 
	d="
M375.447327,17.003670 
	C375.447357,93.781830 375.447357,170.061020 375.447357,246.567352 
	C251.087082,246.567352 127.324211,246.567352 3.294032,246.567352 
	C3.294032,165.631897 3.294032,84.705765 3.294032,3.403171 
	C126.993484,3.403171 250.864700,3.403171 375.447296,3.403171 
	C375.447296,7.683769 375.447296,12.094233 375.447327,17.003670 
M327.674225,194.031525 
	C327.814423,193.300735 327.954651,192.569946 328.046661,191.111481 
	C328.020447,190.382675 327.994232,189.653854 328.367798,188.338150 
	C329.536621,186.638824 331.992279,184.643982 331.680115,183.284744 
	C327.408661,164.684586 319.628204,158.691116 300.490509,158.681458 
	C299.991028,158.681198 299.491486,158.684265 298.992096,158.693176 
	C283.196960,158.974762 267.957458,162.425201 253.082214,167.370361 
	C248.361267,168.939804 245.465485,167.865677 243.387680,163.636414 
	C244.976044,163.925125 246.564407,164.213821 249.324890,164.715576 
	C247.891663,162.687698 246.952148,161.358383 246.023178,159.230621 
	C244.823776,154.938522 243.369659,150.697571 242.495026,146.340286 
	C241.580200,141.782822 241.043106,137.087433 245.091187,132.911713 
	C246.053375,130.945892 247.015564,128.980072 248.712692,126.810287 
	C259.998596,125.616158 271.150513,125.932869 282.047241,129.575256 
	C282.663666,129.781326 283.577026,129.099243 284.770111,129.418610 
	C292.445923,133.953918 300.121735,138.489227 307.623047,142.921432 
	C308.724884,138.562683 308.364594,131.800354 304.835052,120.351074 
	C292.457306,80.199280 265.281891,55.563942 223.929245,49.793476 
	C183.155823,44.103832 150.631531,60.237167 127.772575,94.675896 
	C121.991425,103.385635 117.286278,112.811966 115.823425,124.029106 
	C114.659134,125.417953 113.553482,126.861374 112.320442,128.186249 
	C106.813927,134.102829 101.271057,139.985565 95.159386,146.180450 
	C88.703606,152.754013 82.247833,159.327591 75.188812,165.605865 
	C71.015144,165.848312 70.367332,167.140930 71.762825,172.692978 
	C68.878456,173.483612 65.994087,174.274246 62.376347,175.029892 
	C61.412861,175.275970 60.449375,175.522034 59.485580,175.768188 
	C60.811562,177.700409 61.889362,179.270996 62.385960,181.043747 
	C63.255203,181.685928 64.124451,182.328125 65.677162,183.092377 
	C67.110237,184.344009 68.543312,185.595627 69.246323,186.969513 
	C68.330894,187.067596 67.415466,187.165695 66.500046,187.263779 
	C112.709663,201.237717 158.764984,215.455368 205.343369,227.680145 
	C241.306580,237.118896 278.078003,239.880096 315.482727,232.380157 
	C325.170563,231.274445 331.501251,226.045822 332.257202,218.238785 
	C338.006897,212.258041 339.084930,202.164154 334.704010,193.915359 
	C334.035736,194.374664 333.199646,194.680191 332.781311,195.278015 
	C328.040985,202.052368 321.013794,205.188004 313.331329,204.751892 
	C303.189850,204.176178 293.139648,201.991913 282.933197,200.028229 
	C282.298462,199.978531 281.663757,199.928833 280.319672,199.903870 
	C279.227203,199.468857 278.134735,199.033859 276.746460,197.967697 
	C275.897858,197.820557 275.049286,197.673416 273.511230,197.464142 
	C271.016449,196.285370 268.521667,195.106598 265.890717,193.314529 
	C264.594727,192.872559 263.298737,192.430573 261.254486,191.947067 
	C255.163467,190.001862 249.072433,188.056656 243.077072,185.486618 
	C243.714539,184.672241 244.352005,183.857849 245.669662,182.984238 
	C246.099091,183.123093 246.528503,183.261948 247.063889,183.888565 
	C247.705170,183.942688 248.346451,183.996811 249.763000,184.021500 
	C251.667221,184.598984 253.584045,185.138229 255.473679,185.760040 
	C269.632416,190.419220 283.785797,195.094666 298.141144,200.185303 
	C298.763184,200.113968 299.385254,200.042633 300.901825,199.808884 
	C303.929413,199.854996 306.956970,199.901123 310.236420,200.337906 
	C310.845306,200.163605 311.454193,199.989304 312.877625,199.491058 
	C316.894012,198.333145 320.910400,197.175232 325.592804,195.963531 
	C326.066986,195.327957 326.541168,194.692368 327.029785,194.036530 
	C327.029785,194.036530 327.047943,194.019547 327.674225,194.031525 
M333.463165,191.494736 
	C333.463165,191.494736 333.511200,191.475235 333.463165,191.494736 
z"/>
<path fill="#D6B241" opacity="1.000000" stroke="none" 
	d="
M116.161919,123.532990 
	C117.286278,112.811966 121.991425,103.385635 127.772575,94.675896 
	C150.631531,60.237167 183.155823,44.103832 223.929245,49.793476 
	C265.281891,55.563942 292.457306,80.199280 304.835052,120.351074 
	C308.364594,131.800354 308.724884,138.562683 307.623047,142.921432 
	C300.121735,138.489227 292.445923,133.953918 284.324097,128.872040 
	C279.634857,126.173820 275.391602,124.022179 271.084900,121.514442 
	C267.724823,119.391640 264.428162,117.624924 261.076172,115.521881 
	C252.415237,107.176445 243.903717,99.063095 235.178436,91.186539 
	C225.820648,82.738998 229.263916,83.749100 219.201492,89.389328 
	C211.137802,93.909225 203.082092,98.443359 194.826660,102.697098 
	C189.122070,98.257515 183.613663,94.092010 177.937988,89.649963 
	C177.208908,89.072075 176.647079,88.770721 176.037598,88.313766 
	C175.846405,87.966293 175.655380,87.881371 175.368225,87.690552 
	C174.859589,87.211197 174.399567,86.944695 173.696518,86.559303 
	C173.291275,86.519264 173.129044,86.598122 172.615204,86.747185 
	C163.111069,94.489853 153.814590,101.999916 144.880234,109.918556 
	C141.531448,112.886612 138.684311,113.984024 134.934708,111.126595 
	C132.044144,108.923828 129.792831,109.447166 127.342850,112.280251 
	C123.892372,116.270271 119.914360,119.804100 116.161919,123.532990 
z"/>
<path fill="#322D2D" opacity="1.000000" stroke="none" 
	d="
M271.148346,121.870529 
	C275.391602,124.022179 279.634857,126.173820 284.115143,128.578003 
	C283.577026,129.099243 282.663666,129.781326 282.047241,129.575256 
	C271.150513,125.932869 259.998596,125.616158 248.010773,126.825714 
	C239.295486,128.358505 235.021042,131.554413 234.478745,137.966217 
	C233.654831,147.707687 236.009369,156.728012 242.937714,164.112320 
	C245.465485,167.865677 248.361267,168.939804 253.082214,167.370361 
	C267.957458,162.425201 283.196960,158.974762 298.992096,158.693176 
	C299.491486,158.684265 299.991028,158.681198 300.490509,158.681458 
	C319.628204,158.691116 327.408661,164.684586 331.680115,183.284744 
	C331.992279,184.643982 329.536621,186.638824 327.801941,188.687592 
	C320.763428,190.973709 314.290802,192.910370 307.818176,194.847031 
	C307.822662,195.169907 307.827118,195.492767 307.831573,195.815643 
	C312.215393,195.815643 316.599182,195.815643 321.374725,195.878616 
	C322.819885,195.966843 323.873352,195.992081 324.926788,196.017334 
	C320.910400,197.175232 316.894012,198.333145 312.217834,199.531342 
	C311.033569,199.696838 310.509064,199.822037 309.984558,199.947235 
	C306.956970,199.901123 303.929413,199.854996 300.227417,199.726578 
	C299.015656,199.684525 298.478241,199.724777 297.940857,199.765045 
	C283.785797,195.094666 269.632416,190.419220 255.473679,185.760040 
	C253.584045,185.138229 251.667221,184.598984 249.178345,183.829132 
	C248.048431,183.558105 247.503189,183.479446 246.957932,183.400803 
	C246.528503,183.261948 246.099091,183.123093 245.015991,182.779892 
	C238.254303,182.017471 232.146576,180.984512 226.038269,180.981140 
	C194.788773,180.963913 163.539078,181.203323 132.289703,181.392914 
	C130.678055,181.402679 129.068634,181.780563 127.027008,182.034653 
	C121.245224,182.042450 115.894592,182.002655 110.076706,181.788879 
	C107.187965,182.298660 103.872681,179.787598 102.378571,183.674469 
	C102.417015,183.700256 102.542984,183.971878 102.377960,184.009018 
	C101.988640,184.078995 101.763580,184.085403 101.760941,183.560974 
	C100.972542,182.573547 99.978439,181.724640 98.946182,181.675400 
	C95.722725,181.521622 92.484833,181.670059 89.222168,181.418793 
	C89.128654,180.765411 89.065514,180.394562 89.256424,180.021591 
	C89.671898,179.968277 89.833336,179.917068 90.423920,179.945038 
	C92.885429,179.961563 94.917801,179.898926 97.345551,179.920685 
	C99.147896,179.620346 100.554855,179.235611 102.380615,178.807846 
	C109.819328,178.217972 116.839241,177.671097 124.116425,177.256531 
	C124.912254,177.242844 125.450806,177.096863 126.436279,176.994171 
	C130.580170,176.737198 134.277130,176.436935 138.150299,176.281052 
	C138.881882,176.272583 139.437241,176.119736 140.450806,175.998169 
	C149.225693,175.408051 157.542389,174.786606 166.117508,174.295380 
	C166.917328,174.283951 167.458740,174.142303 168.447006,174.040894 
	C172.591461,173.764359 176.289032,173.447586 180.311310,173.267609 
	C185.820023,172.640991 191.004044,171.877609 196.644440,171.145142 
	C207.724899,170.882812 218.348984,170.589539 230.043732,170.266708 
	C226.784531,164.263550 224.434448,159.527344 221.699966,155.024567 
	C219.430649,151.287750 215.751312,149.709610 211.442337,150.373978 
	C207.253418,151.019806 203.126938,152.070663 198.589401,152.874634 
	C196.465332,153.225082 194.724915,153.644577 192.593918,154.061020 
	C189.463257,154.694260 186.723175,155.330551 183.561127,155.977264 
	C179.758423,156.651581 176.377686,157.315445 172.584595,157.985321 
	C148.440659,162.684677 124.709053,167.378021 100.910820,171.792419 
	C100.572563,171.030762 100.300934,170.548050 100.407547,169.980927 
	C103.176895,169.285065 105.568810,168.676773 107.958977,168.061661 
	C129.298767,162.569824 150.638245,157.076782 172.253876,151.642303 
	C173.022278,151.473221 173.514618,151.245926 174.404114,151.035828 
	C188.468781,147.592133 202.136292,144.131256 215.666199,140.705200 
	C215.666199,137.388474 215.666199,134.466690 215.666199,131.301514 
	C214.589188,131.507584 213.783295,131.586884 213.023712,131.818237 
	C199.679977,135.882584 186.341873,139.965485 172.709320,143.998703 
	C171.910126,144.216324 171.404160,144.479614 170.506226,144.771591 
	C158.030472,148.368759 145.945648,151.933731 133.863297,155.507019 
	C126.388504,157.717651 118.934219,160.001694 111.421013,162.072372 
	C110.596199,162.299683 109.442863,161.335037 108.709351,160.653076 
	C143.367996,148.328125 177.745926,136.235275 212.156616,124.236412 
	C226.871185,119.105499 241.990356,117.609222 257.442566,119.818871 
	C262.015442,120.472794 266.579987,121.185020 271.148346,121.870529 
M296.669556,195.207306 
	C299.365723,195.481888 302.061859,195.756454 304.758026,196.031021 
	C304.804352,195.484268 304.850708,194.937531 304.897064,194.390778 
	C301.290283,194.390778 297.683533,194.390778 294.076752,194.390778 
	C294.056427,194.528687 294.036133,194.666580 294.015808,194.804489 
	C294.634735,194.903763 295.253693,195.003036 296.669556,195.207306 
z"/>
<path fill="#2F2929" opacity="1.000000" stroke="none" 
	d="
M101.537773,184.065399 
	C101.763580,184.085403 101.988640,184.078995 102.698883,184.166626 
	C103.654709,184.259399 104.124596,184.231689 105.092300,184.156494 
	C107.168747,184.048691 108.754318,184.042664 110.315132,183.843079 
	C110.469032,183.823395 110.471306,182.617935 110.543961,181.962860 
	C115.894592,182.002655 121.245224,182.042450 126.630104,182.460541 
	C128.458527,183.253860 130.243423,183.984299 132.048233,184.037399 
	C169.018188,185.125687 206.067947,181.894699 242.981415,186.111450 
	C249.072433,188.056656 255.163467,190.001862 261.834045,192.223068 
	C263.618042,192.975327 264.822449,193.451584 266.026886,193.927826 
	C268.521667,195.106598 271.016449,196.285370 274.083374,197.713943 
	C275.451111,198.175446 276.246674,198.387146 277.042267,198.598846 
	C278.134735,199.033859 279.227203,199.468857 280.865265,200.101608 
	C281.957306,200.365936 282.503784,200.432526 283.050232,200.499130 
	C293.139648,201.991913 303.189850,204.176178 313.331329,204.751892 
	C321.013794,205.188004 328.040985,202.052368 332.781311,195.278015 
	C333.199646,194.680191 334.035736,194.374664 334.704010,193.915359 
	C339.084930,202.164154 338.006897,212.258041 331.736023,218.614670 
	C320.848999,225.856613 309.018463,226.735565 297.156067,226.942673 
	C274.547089,227.337402 252.350922,223.675735 230.259293,219.354980 
	C228.404282,218.992188 226.541656,217.909073 225.020218,216.726273 
	C216.737152,210.286926 208.624725,203.626740 200.293350,197.251953 
	C198.567657,195.931534 196.210129,194.911896 194.065598,194.742218 
	C159.404099,191.999939 124.729950,189.417511 90.045334,186.478546 
	C90.044342,185.517365 90.056671,184.876511 90.531647,184.185760 
	C94.508781,184.112366 98.023277,184.088882 101.537773,184.065399 
z"/>
<path fill="#342F2F" opacity="1.000000" stroke="none" 
	d="
M314.987579,231.954193 
	C278.078003,239.880096 241.306580,237.118896 205.343369,227.680145 
	C158.764984,215.455368 112.709663,201.237717 66.500046,187.263779 
	C67.415466,187.165695 68.330894,187.067596 69.998047,186.982758 
	C71.660866,186.726059 72.609238,186.137512 73.476898,186.239014 
	C78.343864,186.808304 83.174644,187.712677 88.048187,188.195724 
	C121.658928,191.526993 155.280441,194.750168 188.885651,198.135544 
	C191.074219,198.356003 193.436478,199.231537 195.240250,200.488083 
	C203.840210,206.479095 212.179764,212.846161 220.823334,218.771072 
	C223.617355,220.686295 226.925827,222.250305 230.219040,222.975342 
	C258.767609,229.260406 287.524597,233.318817 318.170624,229.252228 
	C316.379456,230.772675 315.683502,231.363434 314.987579,231.954193 
z"/>
<path fill="#302B2B" opacity="1.000000" stroke="none" 
	d="
M178.105255,89.926506 
	C183.613663,94.092010 189.122070,98.257515 194.884644,103.051208 
	C196.201981,104.495369 197.265152,105.311340 198.557678,106.336639 
	C202.864532,110.013290 206.942032,113.480621 211.099304,117.226334 
	C211.522415,117.647041 211.865738,117.789368 212.204895,118.233627 
	C212.264847,118.726387 212.328979,118.917213 212.026398,119.206253 
	C209.365356,120.243042 207.097961,121.255035 204.772598,122.109138 
	C172.118423,134.102859 139.446365,146.048126 106.825943,158.132858 
	C105.211838,158.730835 104.030846,160.497879 102.679413,161.746857 
	C102.710655,161.773132 102.587379,161.942093 102.693497,161.306824 
	C102.037216,160.748291 101.274834,160.825043 100.476288,160.894653 
	C100.440140,160.887527 100.412834,160.955978 100.031631,160.863953 
	C94.774498,162.584457 89.898567,164.397003 84.690613,166.217194 
	C83.380798,166.709869 82.403008,167.194870 81.280670,167.652664 
	C81.136124,167.625443 80.948761,167.852219 80.553886,167.865143 
	C78.393074,168.261124 76.627129,168.644196 74.526169,168.799850 
	C74.724785,167.682022 75.258423,166.791595 75.792053,165.901169 
	C82.247833,159.327591 88.703606,152.754013 95.775345,146.102722 
	C96.938866,146.370895 97.486420,146.716782 98.136833,147.396851 
	C100.957321,145.911072 103.674934,144.091095 106.684875,142.124207 
	C107.328438,141.342911 107.679688,140.708557 108.017426,140.042999 
	C108.003914,140.011795 108.047417,140.063766 108.442154,140.167709 
	C108.912155,139.865036 108.987411,139.458435 109.034836,139.028656 
	C109.007019,139.005508 109.071678,139.037857 109.328712,139.348297 
	C113.469124,136.366486 117.352501,133.074234 122.375237,128.816040 
	C121.856628,132.468063 121.569725,134.488403 121.057610,138.094650 
	C125.690269,131.802490 129.442535,126.706085 133.467590,121.239197 
	C138.319748,125.841599 142.432724,124.924629 146.059525,120.203430 
	C146.210388,120.007057 146.658646,120.039154 147.109009,120.120178 
	C147.249664,120.275551 147.558243,120.559227 147.555481,120.910324 
	C147.208603,122.421432 146.864471,123.581444 146.520340,124.741447 
	C146.822998,124.930183 147.125656,125.118912 147.428314,125.307648 
	C149.095337,122.693184 150.762360,120.078720 153.169968,116.302742 
	C153.169968,121.623482 153.169968,125.495148 153.169968,129.366821 
	C153.398087,129.404419 153.626205,129.442017 153.854324,129.479614 
	C156.847336,121.707207 159.840347,113.934792 162.853851,106.109177 
	C165.128372,107.252411 166.726593,108.055710 168.669159,109.032089 
	C170.046356,103.430733 171.347488,98.138794 172.930603,92.689056 
	C173.130661,90.579834 173.048737,88.628410 172.966812,86.676979 
	C173.129044,86.598122 173.291275,86.519264 173.869431,86.841599 
	C174.662521,87.462997 175.039688,87.683205 175.416840,87.903404 
	C175.655380,87.881371 175.846405,87.966293 176.172607,88.627625 
	C176.938599,89.373550 177.521927,89.650032 178.105255,89.926506 
z"/>
<path fill="#E6E5E5" opacity="1.000000" stroke="none" 
	d="
M315.235168,232.167175 
	C315.683502,231.363434 316.379456,230.772675 318.170624,229.252228 
	C287.524597,233.318817 258.767609,229.260406 230.219040,222.975342 
	C226.925827,222.250305 223.617355,220.686295 220.823334,218.771072 
	C212.179764,212.846161 203.840210,206.479095 195.240250,200.488083 
	C193.436478,199.231537 191.074219,198.356003 188.885651,198.135544 
	C155.280441,194.750168 121.658928,191.526993 88.048187,188.195724 
	C83.174644,187.712677 78.343864,186.808304 73.476898,186.239014 
	C72.609238,186.137512 71.660866,186.726059 70.363075,186.921631 
	C68.543312,185.595627 67.110237,184.344009 65.311089,182.696747 
	C64.918594,182.078842 64.892181,181.856552 65.183060,181.474045 
	C66.677048,181.177414 67.853752,181.041000 69.296471,180.941711 
	C69.739983,181.003357 69.917473,181.027863 70.145782,181.309204 
	C70.460152,181.789520 70.723686,182.013016 71.005386,182.535477 
	C71.447838,183.334763 71.872108,183.835083 72.296387,184.335403 
	C72.535126,183.634521 72.773865,182.933624 73.453293,182.186813 
	C76.259148,182.190231 78.624321,182.239578 81.117447,182.477264 
	C81.495270,183.045807 81.745140,183.425995 81.579254,183.876083 
	C79.239182,184.094940 77.314857,184.243912 75.390526,184.392883 
	C75.434776,184.675156 75.479027,184.957428 75.523277,185.239700 
	C80.368408,185.759415 85.213539,186.279144 90.058670,186.798874 
	C124.729950,189.417511 159.404099,191.999939 194.065598,194.742218 
	C196.210129,194.911896 198.567657,195.931534 200.293350,197.251953 
	C208.624725,203.626740 216.737152,210.286926 225.020218,216.726273 
	C226.541656,217.909073 228.404282,218.992188 230.259293,219.354980 
	C252.350922,223.675735 274.547089,227.337402 297.156067,226.942673 
	C309.018463,226.735565 320.848999,225.856613 331.562073,218.901855 
	C331.501251,226.045822 325.170563,231.274445 315.235168,232.167175 
z"/>
<path fill="#433D38" opacity="1.000000" stroke="none" 
	d="
M172.615204,86.747185 
	C173.048737,88.628410 173.130661,90.579834 172.875549,92.398438 
	C171.831146,92.141258 170.802368,91.649658 170.463470,91.946281 
	C161.968796,99.381256 153.420715,106.764549 145.180786,114.476166 
	C142.326141,117.147781 139.805588,118.097710 136.487076,115.882454 
	C133.465607,113.865486 131.238861,114.661423 128.808365,117.231850 
	C123.724266,122.608658 118.223763,127.590294 113.094345,132.926544 
	C111.432640,134.655258 110.394852,136.983719 109.071671,139.037857 
	C109.071678,139.037857 109.007019,139.005508 108.607971,138.744019 
	C108.155083,139.009613 108.101250,139.536697 108.047417,140.063766 
	C108.047417,140.063766 108.003914,140.011795 107.855766,139.607178 
	C106.592606,140.102966 105.477585,141.003372 104.063515,141.976898 
	C101.854294,143.720901 99.944130,145.391785 98.033966,147.062668 
	C97.486420,146.716782 96.938866,146.370895 96.066315,145.952774 
	C101.271057,139.985565 106.813927,134.102829 112.320442,128.186249 
	C113.553482,126.861374 114.659134,125.417953 115.992676,123.781052 
	C119.914360,119.804100 123.892372,116.270271 127.342850,112.280251 
	C129.792831,109.447166 132.044144,108.923828 134.934708,111.126595 
	C138.684311,113.984024 141.531448,112.886612 144.880234,109.918556 
	C153.814590,101.999916 163.111069,94.489853 172.615204,86.747185 
z"/>
<path fill="#EBEAEA" opacity="1.000000" stroke="none" 
	d="
M243.029236,185.799042 
	C206.067947,181.894699 169.018188,185.125687 132.048233,184.037399 
	C130.243423,183.984299 128.458527,183.253860 127.061264,182.412949 
	C129.068634,181.780563 130.678055,181.402679 132.289703,181.392914 
	C163.539078,181.203323 194.788773,180.963913 226.038269,180.981140 
	C232.146576,180.984512 238.254303,182.017471 244.675873,182.809509 
	C244.352005,183.857849 243.714539,184.672241 243.029236,185.799042 
z"/>
<path fill="#E4E3E3" opacity="1.000000" stroke="none" 
	d="
M243.162689,163.874359 
	C236.009369,156.728012 233.654831,147.707687 234.478745,137.966217 
	C235.021042,131.554413 239.295486,128.358505 247.643311,126.927704 
	C247.015564,128.980072 246.053375,130.945892 244.558517,132.636261 
	C243.297607,132.420364 242.346069,132.202393 241.874985,132.581497 
	C235.815994,137.457397 238.714157,156.462997 246.012634,160.029068 
	C246.952148,161.358383 247.891663,162.687698 249.324890,164.715576 
	C246.564407,164.213821 244.976044,163.925125 243.162689,163.874359 
z"/>
<path fill="#494547" opacity="1.000000" stroke="none" 
	d="
M246.017914,159.629852 
	C238.714157,156.462997 235.815994,137.457397 241.874985,132.581497 
	C242.346069,132.202393 243.297607,132.420364 244.193954,132.699036 
	C241.043106,137.087433 241.580200,141.782822 242.495026,146.340286 
	C243.369659,150.697571 244.823776,154.938522 246.017914,159.629852 
z"/>
<path fill="#EBEAEA" opacity="1.000000" stroke="none" 
	d="
M320.983002,195.815643 
	C316.599182,195.815643 312.215393,195.815643 307.831573,195.815643 
	C307.827118,195.492767 307.822662,195.169907 307.818176,194.847031 
	C314.290802,192.910370 320.763428,190.973709 327.602020,188.981049 
	C327.994232,189.653854 328.020447,190.382675 327.845947,191.696564 
	C327.446106,192.860947 327.247040,193.440247 327.047943,194.019547 
	C327.047943,194.019547 327.029785,194.036530 326.729370,193.920288 
	C324.613617,194.474579 322.798309,195.145111 320.983002,195.815643 
z"/>
<path fill="#E0DFDF" opacity="1.000000" stroke="none" 
	d="
M63.109718,175.064880 
	C65.994087,174.274246 68.878456,173.483612 72.086021,172.478760 
	C72.624008,172.517776 72.838791,172.771011 73.046997,173.354309 
	C73.031021,174.124863 73.021622,174.565338 72.803787,175.025803 
	C72.396141,175.367981 72.196930,175.690186 72.128967,176.206635 
	C72.460144,176.645996 72.697433,176.847000 72.869461,177.338531 
	C71.517883,178.139099 70.268929,178.605042 68.715607,178.991837 
	C66.644073,177.630081 64.876900,176.347473 63.109718,175.064880 
z"/>
<path fill="#F8F8F8" opacity="1.000000" stroke="none" 
	d="
M62.743034,175.047394 
	C64.876900,176.347473 66.644073,177.630081 68.711250,179.297180 
	C69.017647,180.089340 69.024048,180.496964 69.030449,180.904602 
	C67.853752,181.041000 66.677048,181.177414 64.941498,181.400879 
	C63.910816,181.272491 63.438988,181.057022 62.967163,180.841568 
	C61.889362,179.270996 60.811562,177.700409 59.485580,175.768188 
	C60.449375,175.522034 61.412861,175.275970 62.743034,175.047394 
z"/>
<path fill="#EFEFEF" opacity="1.000000" stroke="none" 
	d="
M73.053581,173.024261 
	C72.838791,172.771011 72.624008,172.517776 72.198334,172.129181 
	C70.367332,167.140930 71.015144,165.848312 75.490433,165.753510 
	C75.258423,166.791595 74.724785,167.682022 74.570320,168.802994 
	C74.949493,169.033554 74.951424,168.945282 74.788841,168.615021 
	C74.010384,168.582581 73.394516,168.880402 71.863846,169.620575 
	C73.582489,169.832184 74.303284,169.920929 75.214142,170.147675 
	C75.674126,170.468399 75.858887,170.714966 75.729897,171.224548 
	C74.685402,171.957245 73.869492,172.490753 73.053581,173.024261 
z"/>
<path fill="#DDDCDC" opacity="1.000000" stroke="none" 
	d="
M321.374725,195.878616 
	C322.798309,195.145111 324.613617,194.474579 326.722168,193.930420 
	C326.541168,194.692368 326.066986,195.327957 325.259796,195.990433 
	C323.873352,195.992081 322.819885,195.966843 321.374725,195.878616 
z"/>
<path fill="#EBEAEA" opacity="1.000000" stroke="none" 
	d="
M265.958801,193.621185 
	C264.822449,193.451584 263.618042,192.975327 262.208191,192.243835 
	C263.298737,192.430573 264.594727,192.872559 265.958801,193.621185 
z"/>
<path fill="#E2E2E2" opacity="1.000000" stroke="none" 
	d="
M62.676559,180.942657 
	C63.438988,181.057022 63.910816,181.272491 64.624207,181.561096 
	C64.892181,181.856552 64.918594,182.078842 64.969360,182.635712 
	C64.124451,182.328125 63.255203,181.685928 62.676559,180.942657 
z"/>
<path fill="#DDDCDC" opacity="1.000000" stroke="none" 
	d="
M327.361084,194.025543 
	C327.247040,193.440247 327.446106,192.860947 327.870056,192.060394 
	C327.954651,192.569946 327.814423,193.300735 327.361084,194.025543 
z"/>
<path fill="#EBEAEA" opacity="1.000000" stroke="none" 
	d="
M310.110474,200.142578 
	C310.509064,199.822037 311.033569,199.696838 311.810577,199.693298 
	C311.454193,199.989304 310.845306,200.163605 310.110474,200.142578 
z"/>
<path fill="#EBEAEA" opacity="1.000000" stroke="none" 
	d="
M247.010910,183.644684 
	C247.503189,183.479446 248.048431,183.558105 248.790710,183.843857 
	C248.346451,183.996811 247.705170,183.942688 247.010910,183.644684 
z"/>
<path fill="#EBEAEA" opacity="1.000000" stroke="none" 
	d="
M298.041016,199.975174 
	C298.478241,199.724777 299.015656,199.684525 299.780151,199.807770 
	C299.385254,200.042633 298.763184,200.113968 298.041016,199.975174 
z"/>
<path fill="#EBEAEA" opacity="1.000000" stroke="none" 
	d="
M282.991699,200.263672 
	C282.503784,200.432526 281.957306,200.365936 281.219940,200.089233 
	C281.663757,199.928833 282.298462,199.978531 282.991699,200.263672 
z"/>
<path fill="#EBEAEA" opacity="1.000000" stroke="none" 
	d="
M276.894348,198.283264 
	C276.246674,198.387146 275.451111,198.175446 274.428101,197.745010 
	C275.049286,197.673416 275.897858,197.820557 276.894348,198.283264 
z"/>
<path fill="#EBEAEA" opacity="1.000000" stroke="none" 
	d="
M333.487183,191.484985 
	C333.511200,191.475235 333.463165,191.494736 333.487183,191.484985 
z"/>
<path fill="#332C2A" opacity="1.000000" stroke="none" 
	d="
M198.328323,106.127319 
	C197.265152,105.311340 196.201981,104.495369 195.080841,103.325287 
	C203.082092,98.443359 211.137802,93.909225 219.201492,89.389328 
	C229.263916,83.749100 225.820648,82.738998 235.178436,91.186539 
	C243.903717,99.063095 252.415237,107.176445 260.623230,115.622475 
	C247.708893,116.377686 235.180359,116.475792 222.682526,117.146370 
	C218.856018,117.351685 215.580215,117.273155 212.536896,114.222855 
	C210.886734,112.624084 209.457504,111.321991 207.914764,109.916489 
	C212.424683,104.527245 216.692963,99.426743 220.961258,94.326241 
	C218.336166,94.542320 216.347565,95.679100 214.365540,96.827217 
	C209.018295,99.924667 203.673874,103.026955 198.328323,106.127319 
z"/>
<path fill="#EFEFEF" opacity="1.000000" stroke="none" 
	d="
M212.757828,114.519531 
	C215.580215,117.273155 218.856018,117.351685 222.682526,117.146370 
	C235.180359,116.475792 247.708893,116.377686 260.678558,115.958794 
	C264.428162,117.624924 267.724823,119.391640 271.084900,121.514450 
	C266.579987,121.185020 262.015442,120.472794 257.442566,119.818871 
	C241.990356,117.609222 226.871185,119.105499 212.156616,124.236412 
	C177.745926,136.235275 143.367996,148.328125 108.743668,160.657074 
	C108.510529,160.931244 108.555656,160.988693 107.957863,160.951447 
	C105.789436,161.182983 104.218811,161.451782 102.648178,161.720566 
	C104.030846,160.497879 105.211838,158.730835 106.825943,158.132858 
	C139.446365,146.048126 172.118423,134.102859 204.772598,122.109138 
	C207.097961,121.255035 209.365356,120.243042 212.230316,119.163406 
	C212.959427,118.820564 213.117920,118.618782 213.276413,118.416992 
	C212.920639,118.255226 212.564850,118.093460 212.209076,117.931694 
	C211.865738,117.789368 211.522415,117.647041 211.211349,116.857239 
	C211.748352,115.646355 212.253082,115.082939 212.757828,114.519531 
z"/>
<path fill="#433D38" opacity="1.000000" stroke="none" 
	d="
M175.368225,87.690552 
	C175.039688,87.683205 174.662521,87.462997 174.112457,86.960495 
	C174.399567,86.944695 174.859589,87.211197 175.368225,87.690552 
z"/>
<path fill="#433D38" opacity="1.000000" stroke="none" 
	d="
M177.937988,89.649963 
	C177.521927,89.650032 176.938599,89.373550 176.220276,88.783218 
	C176.647079,88.770721 177.208908,89.072075 177.937988,89.649963 
z"/>
<path fill="#F8F8F8" opacity="1.000000" stroke="none" 
	d="
M123.859146,177.124237 
	C116.839241,177.671097 109.819328,178.217972 102.145889,178.558624 
	C99.978294,178.847046 98.464226,179.341660 96.950165,179.836288 
	C94.917801,179.898926 92.885429,179.961563 90.425537,179.549194 
	C89.979042,177.764969 89.960068,176.455765 90.286163,175.106750 
	C94.079979,174.068420 97.528709,173.069885 100.977448,172.071350 
	C124.709053,167.378021 148.440659,162.684677 172.612213,158.271408 
	C173.338379,159.030441 173.624603,159.509415 173.884048,160.356689 
	C175.892014,164.183411 177.926743,167.641846 179.963623,171.438904 
	C179.972717,172.228607 179.979660,172.679718 179.986618,173.130814 
	C176.289032,173.447586 172.591461,173.764359 168.320892,173.851776 
	C167.118317,173.803360 166.488693,173.984268 165.859085,174.165176 
	C157.542389,174.786606 149.225693,175.408051 140.283875,175.808838 
	C139.097198,175.771011 138.535660,175.953842 137.974106,176.136688 
	C134.277130,176.436935 130.580170,176.737198 126.307915,176.809906 
	C125.108139,176.763000 124.483643,176.943619 123.859146,177.124237 
z"/>
<path fill="#F8F8F8" opacity="1.000000" stroke="none" 
	d="
M108.555649,160.988693 
	C108.555656,160.988693 108.510529,160.931244 108.476212,160.927246 
	C109.442863,161.335037 110.596199,162.299683 111.421013,162.072372 
	C118.934219,160.001694 126.388504,157.717651 133.863297,155.507019 
	C145.945648,151.933731 158.030472,148.368759 170.672241,144.990433 
	C171.821014,144.801849 172.411789,144.423111 173.002563,144.044373 
	C186.341873,139.965485 199.679977,135.882584 213.023712,131.818237 
	C213.783295,131.586884 214.589188,131.507584 215.666199,131.301514 
	C215.666199,134.466690 215.666199,137.388474 215.666199,140.705200 
	C202.136292,144.131256 188.468781,147.592133 174.246445,150.848068 
	C173.120346,150.956787 172.549088,151.270447 171.977814,151.584106 
	C150.638245,157.076782 129.298767,162.569824 107.958977,168.061661 
	C105.568810,168.676773 103.176895,169.285065 100.189278,169.765594 
	C95.211868,170.624634 90.783737,171.446945 86.466614,172.663239 
	C83.570007,173.479324 80.830711,174.853806 77.795631,175.995117 
	C77.570229,176.011780 77.119286,176.043304 76.873642,175.803894 
	C75.751801,175.376312 74.875595,175.188156 73.752602,175.001892 
	C73.505814,175.003769 73.012222,175.005829 73.012222,175.005829 
	C73.021622,174.565338 73.031021,174.124863 73.046997,173.354309 
	C73.869492,172.490753 74.685402,171.957245 75.925301,171.387253 
	C79.597382,170.579559 82.845474,169.808380 86.326683,169.021393 
	C86.559799,169.005600 87.026421,168.980591 87.259125,169.072449 
	C87.974991,168.776398 88.458153,168.388458 89.180161,168.009674 
	C89.418999,168.018799 89.896339,168.044510 90.092033,168.255432 
	C90.853218,168.003143 91.418716,167.539917 92.325531,167.075043 
	C97.827744,165.789581 102.998291,164.541046 108.126114,163.136551 
	C108.441719,163.050125 108.420280,161.733139 108.555649,160.988693 
z"/>
<path fill="#F0EEEE" opacity="1.000000" stroke="none" 
	d="
M183.983078,155.966843 
	C186.723175,155.330551 189.463257,154.694260 192.600281,154.402405 
	C193.009659,155.201752 193.022110,155.656662 192.648148,156.239426 
	C191.724197,156.702454 190.774811,156.973190 190.710770,157.382431 
	C189.717743,163.728851 197.987564,171.285629 204.275070,169.879257 
	C206.338287,169.417786 208.403687,168.900452 210.496964,168.652451 
	C214.879196,168.133270 219.280609,167.776077 223.885468,167.331985 
	C215.786514,152.392639 217.067886,152.221970 201.961838,154.710175 
	C200.984726,154.871109 199.991730,154.935425 198.994507,154.694595 
	C198.979614,153.877548 198.976334,153.410614 198.973038,152.943665 
	C203.126938,152.070663 207.253418,151.019806 211.442337,150.373978 
	C215.751312,149.709610 219.430649,151.287750 221.699966,155.024567 
	C224.434448,159.527344 226.784531,164.263550 230.043732,170.266708 
	C218.348984,170.589539 207.724899,170.882812 196.323212,171.045013 
	C194.069016,170.948517 192.592407,170.983078 191.126038,170.616028 
	C188.776993,166.023117 186.417725,161.831772 184.061523,157.360336 
	C184.037445,156.709106 184.010269,156.337982 183.983078,155.966843 
z"/>
<path fill="#CBC8C9" opacity="1.000000" stroke="none" 
	d="
M183.561127,155.977264 
	C184.010269,156.337982 184.037445,156.709106 183.678131,157.542191 
	C182.289642,158.382065 181.287659,158.759995 180.060257,159.222946 
	C181.689941,162.097015 183.581161,164.500381 184.470001,167.230118 
	C185.645142,170.839111 187.839722,171.619278 191.115799,171.017624 
	C192.592407,170.983078 194.069016,170.948517 195.866852,171.014084 
	C191.004044,171.877609 185.820023,172.640991 180.311310,173.267609 
	C179.979660,172.679718 179.972717,172.228607 180.321228,171.405945 
	C181.175140,170.257874 182.279480,169.201965 182.071609,168.751175 
	C180.906418,166.224350 179.653976,163.662811 177.946152,161.495422 
	C177.186676,160.531601 175.290863,160.463211 173.910828,159.988388 
	C173.624603,159.509415 173.338379,159.030441 173.024551,158.265381 
	C176.377686,157.315445 179.758423,156.651581 183.561127,155.977264 
z"/>
<path fill="#EFEFEF" opacity="1.000000" stroke="none" 
	d="
M78.021034,175.978439 
	C80.830711,174.853806 83.570007,173.479324 86.466614,172.663239 
	C90.783737,171.446945 95.211868,170.624634 99.811035,169.850006 
	C100.300934,170.548050 100.572563,171.030762 100.910820,171.792419 
	C97.528709,173.069885 94.079979,174.068420 90.008514,174.990723 
	C85.597534,175.269165 81.809288,175.623810 78.021034,175.978439 
z"/>
<path fill="#FEFEFE" opacity="1.000000" stroke="none" 
	d="
M77.795631,175.995117 
	C81.809288,175.623810 85.597534,175.269165 89.663437,175.030548 
	C89.960068,176.455765 89.979042,177.764969 89.996399,179.470001 
	C89.833336,179.917068 89.671898,179.968277 89.086075,179.774200 
	C87.877396,179.394287 87.093109,179.259644 85.931290,179.084412 
	C84.388832,179.309082 83.223923,179.574356 81.608833,179.840408 
	C77.470757,180.244919 73.782860,180.648651 70.094955,181.052383 
	C69.917473,181.027863 69.739983,181.003357 69.296471,180.941711 
	C69.024048,180.496964 69.017647,180.089340 69.015610,179.376343 
	C70.268929,178.605042 71.517883,178.139099 72.763870,177.123383 
	C72.565865,176.305862 72.311470,176.118790 71.997726,176.012390 
	C72.196930,175.690186 72.396141,175.367981 72.803787,175.025803 
	C73.012222,175.005829 73.505814,175.003769 73.822861,175.310760 
	C75.133026,175.759598 76.126160,175.901459 77.119286,176.043304 
	C77.119286,176.043304 77.570229,176.011780 77.795631,175.995117 
z"/>
<path fill="#E2E2E2" opacity="1.000000" stroke="none" 
	d="
M81.995003,183.806213 
	C81.745140,183.425995 81.495270,183.045807 81.572754,182.423218 
	C84.350922,182.021011 86.801727,181.861176 89.252541,181.701340 
	C92.484833,181.670059 95.722725,181.521622 98.946182,181.675400 
	C99.978439,181.724640 100.972542,182.573547 101.760941,183.560974 
	C98.023277,184.088882 94.508781,184.112366 90.092995,184.079987 
	C86.792801,183.951477 84.393906,183.878845 81.995003,183.806213 
z"/>
<path fill="#979394" opacity="1.000000" stroke="none" 
	d="
M89.222168,181.418793 
	C86.801727,181.861176 84.350922,182.021011 81.444794,182.234894 
	C78.624321,182.239578 76.259148,182.190231 73.117142,182.131012 
	C71.889282,182.159592 71.438255,182.198059 70.987228,182.236511 
	C70.723686,182.013016 70.460152,181.789520 70.145782,181.309204 
	C73.782860,180.648651 77.470757,180.244919 81.775192,180.133286 
	C83.697426,179.991928 85.003128,179.558472 86.308823,179.125000 
	C87.093109,179.259644 87.877396,179.394287 88.832031,179.776337 
	C89.065514,180.394562 89.128654,180.765411 89.222168,181.418793 
z"/>
<path fill="#DDDCDC" opacity="1.000000" stroke="none" 
	d="
M296.271088,195.154816 
	C295.253693,195.003036 294.634735,194.903763 294.015808,194.804489 
	C294.036133,194.666580 294.056427,194.528687 294.076752,194.390778 
	C297.683533,194.390778 301.290283,194.390778 304.897064,194.390778 
	C304.850708,194.937531 304.804352,195.484268 304.758026,196.031021 
	C302.061859,195.756454 299.365723,195.481888 296.271088,195.154816 
z"/>
<path fill="#CFCCCB" opacity="1.000000" stroke="none" 
	d="
M193.034561,156.111557 
	C193.022110,155.656662 193.009659,155.201752 192.990845,154.405457 
	C194.724915,153.644577 196.465332,153.225082 198.589401,152.874634 
	C198.976334,153.410614 198.979614,153.877548 198.672791,154.896332 
	C196.586639,155.669281 194.810593,155.890411 193.034561,156.111557 
z"/>
<path fill="#EBEAEA" opacity="1.000000" stroke="none" 
	d="
M110.076698,181.788895 
	C110.471306,182.617935 110.469032,183.823395 110.315132,183.843079 
	C108.754318,184.042664 107.168747,184.048691 104.530624,184.009918 
	C103.094139,183.823441 102.717133,183.736053 102.340126,183.648666 
	C103.872681,179.787598 107.187965,182.298660 110.076698,181.788895 
z"/>
<path fill="#CBC8C9" opacity="1.000000" stroke="none" 
	d="
M97.345551,179.920685 
	C98.464226,179.341660 99.978294,178.847046 101.727081,178.601639 
	C100.554855,179.235611 99.147896,179.620346 97.345551,179.920685 
z"/>
<path fill="#EFEFEF" opacity="1.000000" stroke="none" 
	d="
M172.253876,151.642303 
	C172.549088,151.270447 173.120346,150.956787 173.849274,150.830872 
	C173.514618,151.245926 173.022278,151.473221 172.253876,151.642303 
z"/>
<path fill="#EFEFEF" opacity="1.000000" stroke="none" 
	d="
M172.709320,143.998703 
	C172.411789,144.423111 171.821014,144.801849 171.064224,144.961746 
	C171.404160,144.479614 171.910126,144.216324 172.709320,143.998703 
z"/>
<path fill="#CBC8C9" opacity="1.000000" stroke="none" 
	d="
M166.117508,174.295380 
	C166.488693,173.984268 167.118317,173.803360 167.874023,173.811554 
	C167.458740,174.142303 166.917328,174.283951 166.117508,174.295380 
z"/>
<path fill="#CBC8C9" opacity="1.000000" stroke="none" 
	d="
M124.116425,177.256531 
	C124.483643,176.943619 125.108139,176.763000 125.860992,176.766632 
	C125.450806,177.096863 124.912254,177.242844 124.116425,177.256531 
z"/>
<path fill="#CBC8C9" opacity="1.000000" stroke="none" 
	d="
M138.150299,176.281067 
	C138.535660,175.953842 139.097198,175.771011 139.825684,175.777527 
	C139.437241,176.119736 138.881882,176.272583 138.150299,176.281067 
z"/>
<path fill="#575455" opacity="1.000000" stroke="none" 
	d="
M102.378571,183.674469 
	C102.717133,183.736053 103.094139,183.823441 104.032822,184.057419 
	C104.124596,184.231689 103.654709,184.259399 102.863899,184.129486 
	C102.542984,183.971878 102.417015,183.700256 102.378571,183.674469 
z"/>
<path fill="#575455" opacity="1.000000" stroke="none" 
	d="
M81.579254,183.876099 
	C84.393906,183.878845 86.792801,183.951477 89.630356,184.129883 
	C90.056671,184.876511 90.044342,185.517365 90.045334,186.478546 
	C85.213539,186.279144 80.368408,185.759415 75.523277,185.239700 
	C75.479027,184.957428 75.434776,184.675156 75.390526,184.392883 
	C77.314857,184.243912 79.239182,184.094940 81.579254,183.876099 
z"/>
<path fill="#EEEDED" opacity="1.000000" stroke="none" 
	d="
M109.328705,139.348297 
	C110.394852,136.983719 111.432640,134.655258 113.094345,132.926544 
	C118.223763,127.590294 123.724266,122.608658 128.808365,117.231850 
	C131.238861,114.661423 133.465607,113.865486 136.487076,115.882454 
	C139.805588,118.097710 142.326141,117.147781 145.180786,114.476166 
	C153.420715,106.764549 161.968796,99.381256 170.463470,91.946281 
	C170.802368,91.649658 171.831146,92.141258 172.593552,92.556229 
	C171.347488,98.138794 170.046356,103.430733 168.669159,109.032089 
	C166.726593,108.055710 165.128372,107.252411 162.853851,106.109177 
	C159.840347,113.934792 156.847336,121.707207 153.854324,129.479614 
	C153.626205,129.442017 153.398087,129.404419 153.169968,129.366821 
	C153.169968,125.495148 153.169968,121.623482 153.169968,116.302742 
	C150.762360,120.078720 149.095337,122.693184 147.428314,125.307648 
	C147.125656,125.118912 146.822998,124.930183 146.520340,124.741447 
	C146.864471,123.581444 147.208603,122.421432 147.671097,120.702850 
	C147.691025,119.857719 147.592606,119.571159 147.494171,119.284592 
	C147.318893,119.511330 147.143616,119.738068 146.968353,119.964806 
	C146.658646,120.039154 146.210388,120.007057 146.059525,120.203430 
	C142.432724,124.924629 138.319748,125.841599 133.467590,121.239197 
	C129.442535,126.706085 125.690269,131.802490 121.057610,138.094650 
	C121.569725,134.488403 121.856628,132.468063 122.375237,128.816040 
	C117.352501,133.074234 113.469124,136.366486 109.328705,139.348297 
z"/>
<path fill="#E5E4E4" opacity="1.000000" stroke="none" 
	d="
M212.536896,114.222855 
	C212.253082,115.082939 211.748352,115.646355 211.131561,116.578857 
	C206.942032,113.480621 202.864532,110.013290 198.557678,106.336639 
	C203.673874,103.026955 209.018295,99.924667 214.365540,96.827217 
	C216.347565,95.679100 218.336166,94.542320 220.961258,94.326241 
	C216.692963,99.426743 212.424683,104.527245 207.914764,109.916489 
	C209.457504,111.321991 210.886734,112.624084 212.536896,114.222855 
z"/>
<path fill="#514E4F" opacity="1.000000" stroke="none" 
	d="
M107.957855,160.951447 
	C108.420280,161.733139 108.441719,163.050125 108.126114,163.136551 
	C102.998291,164.541046 97.827744,165.789581 92.324646,166.812317 
	C92.014946,166.379196 92.047447,166.207108 92.447281,165.957550 
	C95.370041,164.959259 97.947136,164.089752 100.445953,163.034836 
	C100.684875,162.933990 100.435516,161.676514 100.412834,160.955978 
	C100.412834,160.955978 100.440140,160.887527 100.346397,161.536331 
	C101.030899,162.104111 101.809135,162.023102 102.587379,161.942093 
	C102.587379,161.942093 102.710655,161.773132 102.679413,161.746857 
	C104.218811,161.451782 105.789436,161.182983 107.957855,160.951447 
z"/>
<path fill="#EFEFEF" opacity="1.000000" stroke="none" 
	d="
M100.031631,160.863953 
	C100.435516,161.676514 100.684875,162.933990 100.445953,163.034836 
	C97.947136,164.089752 95.370041,164.959259 92.129700,166.018295 
	C90.928635,166.785843 90.412491,167.415176 89.896347,168.044510 
	C89.896339,168.044510 89.418999,168.018799 88.951309,167.926086 
	C87.997887,168.215759 87.512154,168.598175 87.026421,168.980591 
	C87.026421,168.980591 86.559799,169.005600 86.197556,168.742126 
	C85.564415,167.722290 85.293526,166.965927 85.022644,166.209549 
	C89.898567,164.397003 94.774498,162.584457 100.031631,160.863953 
z"/>
<path fill="#E0DFDF" opacity="1.000000" stroke="none" 
	d="
M84.690620,166.217194 
	C85.293526,166.965927 85.564415,167.722290 85.964432,168.757935 
	C82.845474,169.808380 79.597382,170.579559 76.153885,171.188049 
	C75.858887,170.714966 75.674126,170.468399 75.375748,169.869293 
	C75.215340,169.283722 75.083382,169.114502 74.951424,168.945282 
	C74.951424,168.945282 74.949493,169.033554 74.905334,169.030411 
	C76.627129,168.644196 78.393074,168.261124 80.675072,168.042007 
	C81.445641,168.262955 81.700142,168.319977 81.954651,168.376999 
	C81.778168,168.144638 81.601685,167.912262 81.425209,167.679886 
	C82.403008,167.194870 83.380798,166.709869 84.690620,166.217194 
z"/>
<path fill="#C8C4C4" opacity="1.000000" stroke="none" 
	d="
M98.136841,147.396851 
	C99.944130,145.391785 101.854294,143.720901 104.569649,142.079956 
	C105.714073,142.163651 106.053314,142.217392 106.392555,142.271118 
	C103.674934,144.091095 100.957321,145.911072 98.136841,147.396851 
z"/>
<path fill="#EEEDED" opacity="1.000000" stroke="none" 
	d="
M106.684875,142.124207 
	C106.053314,142.217392 105.714073,142.163651 104.868706,142.006851 
	C105.477585,141.003372 106.592606,140.102966 107.869278,139.638367 
	C107.679688,140.708557 107.328438,141.342911 106.684875,142.124207 
z"/>
<path fill="#EFEFEF" opacity="1.000000" stroke="none" 
	d="
M81.280670,167.652664 
	C81.601685,167.912262 81.778168,168.144638 81.954651,168.376999 
	C81.700142,168.319977 81.445641,168.262955 81.069946,168.029083 
	C80.948761,167.852219 81.136124,167.625443 81.280670,167.652664 
z"/>
<path fill="#E5E4E4" opacity="1.000000" stroke="none" 
	d="
M212.204895,118.233627 
	C212.564850,118.093460 212.920639,118.255226 213.276413,118.416992 
	C213.117920,118.618782 212.959427,118.820564 212.597015,119.065193 
	C212.328979,118.917213 212.264847,118.726387 212.204895,118.233627 
z"/>
<path fill="#EFEFEF" opacity="1.000000" stroke="none" 
	d="
M102.693497,161.306824 
	C101.809135,162.023102 101.030899,162.104111 100.382553,161.543457 
	C101.274834,160.825043 102.037216,160.748291 102.693497,161.306824 
z"/>
<path fill="#EEEDED" opacity="1.000000" stroke="none" 
	d="
M108.442154,140.167709 
	C108.101250,139.536697 108.155083,139.009613 108.635788,138.767181 
	C108.987411,139.458435 108.912155,139.865036 108.442154,140.167709 
z"/>
<path fill="#E2E2E2" opacity="1.000000" stroke="none" 
	d="
M71.005394,182.535477 
	C71.438255,182.198059 71.889282,182.159592 72.676453,182.176941 
	C72.773865,182.933624 72.535126,183.634521 72.296387,184.335403 
	C71.872108,183.835083 71.447838,183.334763 71.005394,182.535477 
z"/>
<path fill="#E8E8E8" opacity="1.000000" stroke="none" 
	d="
M72.128967,176.206635 
	C72.311470,176.118790 72.565865,176.305862 72.866493,176.788788 
	C72.697433,176.847000 72.460144,176.645996 72.128967,176.206635 
z"/>
<path fill="#302B2B" opacity="1.000000" stroke="none" 
	d="
M74.788841,168.615021 
	C75.083382,169.114502 75.215340,169.283722 75.185684,169.731308 
	C74.303284,169.920929 73.582489,169.832184 71.863846,169.620575 
	C73.394516,168.880402 74.010384,168.582581 74.788841,168.615021 
z"/>
<path fill="#474445" opacity="1.000000" stroke="none" 
	d="
M173.884048,160.356689 
	C175.290863,160.463211 177.186676,160.531601 177.946152,161.495422 
	C179.653976,163.662811 180.906418,166.224350 182.071609,168.751175 
	C182.279480,169.201965 181.175140,170.257874 180.319092,171.067322 
	C177.926743,167.641846 175.892014,164.183411 173.884048,160.356689 
z"/>
<path fill="#EFEFEF" opacity="1.000000" stroke="none" 
	d="
M76.873642,175.803894 
	C76.126160,175.901459 75.133026,175.759598 74.069641,175.308868 
	C74.875595,175.188156 75.751801,175.376312 76.873642,175.803894 
z"/>
<path fill="#E0DFDF" opacity="1.000000" stroke="none" 
	d="
M90.092041,168.255432 
	C90.412491,167.415176 90.928635,166.785843 91.762360,166.095764 
	C92.047447,166.207108 92.014946,166.379196 91.983322,166.813995 
	C91.418716,167.539917 90.853218,168.003143 90.092041,168.255432 
z"/>
<path fill="#E0DFDF" opacity="1.000000" stroke="none" 
	d="
M87.259125,169.072449 
	C87.512154,168.598175 87.997887,168.215759 88.712471,167.916946 
	C88.458153,168.388458 87.974991,168.776398 87.259125,169.072449 
z"/>
<path fill="#342E2E" opacity="1.000000" stroke="none" 
	d="
M192.648148,156.239426 
	C194.810593,155.890411 196.586639,155.669281 198.684387,155.246429 
	C199.991730,154.935425 200.984726,154.871109 201.961838,154.710175 
	C217.067886,152.221970 215.786514,152.392639 223.885468,167.331985 
	C219.280609,167.776077 214.879196,168.133270 210.496964,168.652451 
	C208.403687,168.900452 206.338287,169.417786 204.275070,169.879257 
	C197.987564,171.285629 189.717743,163.728851 190.710770,157.382431 
	C190.774811,156.973190 191.724197,156.702454 192.648148,156.239426 
z"/>
<path fill="#403C3D" opacity="1.000000" stroke="none" 
	d="
M191.126038,170.616028 
	C187.839722,171.619278 185.645142,170.839111 184.470001,167.230118 
	C183.581161,164.500381 181.689941,162.097015 180.060257,159.222946 
	C181.287659,158.759995 182.289642,158.382065 183.675049,157.822281 
	C186.417725,161.831772 188.776993,166.023117 191.126038,170.616028 
z"/>
<path fill="#F8F8F8" opacity="1.000000" stroke="none" 
	d="
M85.931290,179.084412 
	C85.003128,179.558472 83.697426,179.991928 82.225365,180.132507 
	C83.223923,179.574356 84.388832,179.309082 85.931290,179.084412 
z"/>
<path fill="#302B2B" opacity="1.000000" stroke="none" 
	d="
M147.109009,120.120178 
	C147.143616,119.738068 147.318893,119.511330 147.494171,119.284592 
	C147.592606,119.571159 147.691025,119.857719 147.673859,120.351753 
	C147.558243,120.559227 147.249664,120.275551 147.109009,120.120178 
z"/>
</svg>